<?xml version="1.0" encoding="UTF-8"?>
<svg width="254px" height="254px" viewBox="0 0 254 254" xmlns="http://www.w3.org/2000/svg" xmlns:xlink="http://www.w3.org/1999/xlink" version="1.1">
 <!-- Generated by Pixelmator Pro 1.7 -->
 <g id="New-Group-copy-2">
  <g id="New-Group-copy-12">
   <g id="garment">
    <path id="Path" d="M237.188 179.858 L159.313 201.252 C155.289 202.358 151.086 200.209 149.627 196.298 L128.906 140.765 C128.254 139.018 125.782 139.018 125.13 140.765 L104.409 196.298 C102.95 200.209 98.747 202.358 94.723 201.252 L16.848 179.858 C13 178.801 10.505 175.088 10.981 171.126 12.338 159.822 24.465 58.757 24.414 59.187 24.9 55.136 28.336 52.087 32.416 52.087 L221.62 52.087 C225.7 52.087 229.136 55.136 229.622 59.187 229.932 61.768 243.361 173.669 243.055 171.126 243.53 175.088 241.035 178.801 237.188 179.858 Z" fill="none" stroke="#ffffff" stroke-width="12.781" stroke-opacity="1" stroke-linejoin="round"/>
    <path id="Path-1" d="M232.155 80.296 L236.094 113.124 C233.465 114.076 216.61 119.567 201.065 109.009 186.246 98.944 184.619 82.437 184.442 80.296 Z" fill="#ffffff" fill-opacity="1" stroke="#ffffff" stroke-width="8" stroke-opacity="1" stroke-linejoin="round"/>
    <path id="Path-2" d="M21.88 80.296 L69.593 80.296 C69.417 82.437 67.79 98.944 52.97 109.009 37.425 119.567 20.57 114.076 17.941 113.124 Z" fill="#ffffff" fill-opacity="1" stroke="#ffffff" stroke-width="8" stroke-opacity="1" stroke-linejoin="round"/>
    <path id="Path-3" d="M24.838 80.099 L229.689 80.207" fill="none" stroke="#ffffff" stroke-width="8" stroke-opacity="1" stroke-linejoin="round"/>
    <path id="Rectangle" d="M25.5 77 L227.5 77 227.5 54 25.5 54 Z" fill="none" stroke="none"/>
    <path id="Path-copy" d="M123.283 146.837 L129.123 130.288" fill="none" stroke="#ffffff" stroke-width="13" stroke-opacity="1" stroke-linejoin="round"/>
    <path id="Path-copy-1" d="M112.425 109.883 L112.508 70.856" fill="none" stroke="#ffffff" stroke-width="8" stroke-opacity="1" stroke-linejoin="round"/>
    <path id="Path-copy-2" d="M141.822 93.992 L141.904 70.856" fill="none" stroke="#ffffff" stroke-width="8" stroke-opacity="1" stroke-linejoin="round"/>
   </g>
  </g>
 </g>
</svg>
