<?xml version="1.0" encoding="UTF-8"?>
<svg width="415px" height="415px" viewBox="0 0 415 415" xmlns="http://www.w3.org/2000/svg" xmlns:xlink="http://www.w3.org/1999/xlink" version="1.1">
 <!-- Generated by Pixelmator Pro 1.7 -->
 <defs>
  <linearGradient id="linear-gradient" gradientUnits="userSpaceOnUse" x1="60.422" y1="59.922" x2="354.578" y2="354.078">
   <stop offset="0" stop-color="#48c2fd" stop-opacity="1"/>
   <stop offset="1" stop-color="#811da5" stop-opacity="1"/>
  </linearGradient>
 </defs>
 <path id="Ellipse-copy" d="M415.5 207 C415.5 92.125 322.375 -1 207.5 -1 92.625 -1 -0.5 92.125 -0.5 207 -0.5 321.875 92.625 415 207.5 415 322.375 415 415.5 321.875 415.5 207 Z" fill-opacity="1" fill="url(#linear-gradient)" stroke="none"/>
 <g id="New-Group-copy-2">
  <g id="New-Group-copy-12">
   <g id="garment">
    <path id="Path" d="M317.188 260.858 L239.313 282.252 C235.289 283.358 231.086 281.209 229.627 277.298 L208.906 221.765 C208.254 220.018 205.782 220.018 205.13 221.765 L184.409 277.298 C182.95 281.209 178.747 283.358 174.723 282.252 L96.848 260.858 C93 259.801 90.505 256.088 90.981 252.126 92.338 240.822 104.465 139.757 104.414 140.187 104.9 136.136 108.336 133.087 112.416 133.087 L301.62 133.087 C305.7 133.087 309.136 136.136 309.622 140.187 309.932 142.768 323.361 254.669 323.055 252.126 323.53 256.088 321.035 259.801 317.188 260.858 Z" fill="none" stroke="#ffffff" stroke-width="12.781" stroke-opacity="1" stroke-linejoin="round"/>
    <path id="Path-1" d="M312.155 161.296 L316.094 194.124 C313.465 195.076 296.61 200.567 281.065 190.009 266.246 179.944 264.619 163.437 264.442 161.296 Z" fill="#ffffff" fill-opacity="1" stroke="#ffffff" stroke-width="8" stroke-opacity="1" stroke-linejoin="round"/>
    <path id="Path-2" d="M101.88 161.296 L149.593 161.296 C149.417 163.437 147.79 179.944 132.97 190.009 117.425 200.567 100.57 195.076 97.941 194.124 Z" fill="#ffffff" fill-opacity="1" stroke="#ffffff" stroke-width="8" stroke-opacity="1" stroke-linejoin="round"/>
    <path id="Path-3" d="M104.838 161.099 L309.689 161.207" fill="none" stroke="#ffffff" stroke-width="8" stroke-opacity="1" stroke-linejoin="round"/>
    <path id="Rectangle" d="M105.5 158 L307.5 158 307.5 135 105.5 135 Z" fill="none" stroke="none"/>
    <path id="Path-copy" d="M203.283 227.837 L209.123 211.288" fill="none" stroke="#ffffff" stroke-width="13" stroke-opacity="1" stroke-linejoin="round"/>
    <path id="Path-copy-1" d="M192.425 190.883 L192.508 151.856" fill="none" stroke="#ffffff" stroke-width="8" stroke-opacity="1" stroke-linejoin="round"/>
    <path id="Path-copy-2" d="M221.822 174.992 L221.904 151.856" fill="none" stroke="#ffffff" stroke-width="8" stroke-opacity="1" stroke-linejoin="round"/>
   </g>
  </g>
 </g>
</svg>
